<?xml version="1.0" standalone="no"?>
<!DOCTYPE svg PUBLIC "-//W3C//DTD SVG 20010904//EN"
 "http://www.w3.org/TR/2001/REC-SVG-20010904/DTD/svg10.dtd">
<svg version="1.0" xmlns="http://www.w3.org/2000/svg"
 width="512.000000pt" height="512.000000pt" viewBox="0 0 512.000000 512.000000"
 preserveAspectRatio="xMidYMid meet">
<metadata>
Created by potrace 1.11, written by Peter Selinger 2001-2013
</metadata>
<g transform="translate(0.000000,512.000000) scale(0.100000,-0.100000)"
fill="#000000" stroke="none">
<path d="M40 4763 c0 -87 -9 -1141 -20 -2342 -11 -1201 -19 -2185 -18 -2186 5
-3 5079 -47 5083 -43 6 6 35 3430 35 4071 l0 617 -337 0 c-186 0 -1274 9
-2418 20 -1144 11 -2135 20 -2202 20 l-123 0 0 -157z m416 -108 c25 -25 25
-27 22 -171 -3 -139 -4 -147 -27 -165 -18 -15 -39 -19 -98 -19 -65 0 -77 3
-98 25 -24 23 -25 29 -25 165 0 136 1 142 25 165 21 22 33 25 100 25 68 0 79
-3 101 -25z m639 -6 c19 -18 20 -31 17 -167 -4 -185 -6 -187 -121 -187 -119 0
-121 3 -121 182 0 151 6 178 43 193 37 16 159 2 182 -21z m629 0 c26 -20 26
-21 26 -167 0 -136 -1 -147 -22 -169 -19 -20 -31 -23 -99 -23 -102 0 -123 16
-124 91 0 284 2 289 119 289 59 0 78 -4 100 -21z m646 -16 c20 -26 21 -37 18
-170 -4 -179 -3 -178 -124 -178 -121 0 -124 4 -124 185 0 124 2 140 21 164 19
24 26 26 104 26 79 0 85 -1 105 -27z m613 16 c12 -7 25 -17 29 -23 4 -6 8 -76
8 -156 0 -189 -1 -190 -113 -190 -128 0 -127 -2 -127 185 l0 154 26 20 c21 16
41 21 91 21 35 0 74 -5 86 -11z m657 -19 c18 -18 20 -33 20 -165 0 -143 0
-146 -26 -171 -23 -24 -30 -26 -104 -22 -115 5 -115 4 -115 187 0 190 1 191
122 191 70 0 86 -3 103 -20z m620 5 c37 -19 43 -48 38 -203 -4 -157 -8 -162
-125 -162 -122 0 -123 2 -123 181 0 147 6 174 43 189 36 14 135 11 167 -5z
m650 -15 c18 -18 20 -33 20 -170 0 -188 -1 -190 -120 -190 -119 0 -120 2 -120
190 0 188 1 190 120 190 67 0 83 -3 100 -20z m-3440 -445 c569 -4 1047 -9
1063 -11 17 -4 27 -12 27 -23 0 -16 -17 -20 -128 -30 -275 -25 -508 -107 -737
-259 -385 -255 -634 -667 -684 -1134 -6 -54 -11 -104 -11 -113 0 -14 -46 -15
-422 -13 l-423 3 3 625 c1 344 5 703 9 799 l6 173 131 -6 c72 -3 597 -8 1166
-11z m3298 -31 l222 -7 0 -252 c0 -138 -3 -495 -7 -793 l-6 -542 -176 0 c-97
0 -287 3 -422 7 l-246 6 -7 96 c-56 766 -644 1374 -1405 1451 -57 5 -107 10
-112 10 -5 0 -9 10 -9 21 l0 22 973 -7 c534 -3 1072 -9 1195 -12z m-2210 -191
l-3 -68 -45 -3 c-351 -19 -651 -153 -891 -396 -218 -220 -352 -511 -377 -818
l-7 -83 -34 -3 c-19 -2 -50 -1 -69 3 l-35 6 7 86 c38 498 350 959 801 1185
192 97 409 154 588 157 l68 1 -3 -67z m291 41 c111 -23 273 -79 375 -130 280
-141 530 -395 662 -671 82 -173 144 -417 144 -569 l0 -65 -67 3 -68 3 -6 90
c-46 649 -559 1166 -1214 1223 -55 5 -80 11 -79 20 1 6 2 37 3 68 l1 57 86 -7
c47 -3 121 -13 163 -22z m-292 -511 c-4 -207 -7 -497 -7 -645 l0 -268 -123 0
c-68 0 -166 3 -217 7 l-93 6 6 379 5 378 -128 0 -128 0 -6 -44 c-14 -94 -89
-153 -206 -163 l-60 -6 0 -128 0 -129 120 0 120 0 0 -47 c0 -27 -3 -92 -7
-145 l-6 -98 -279 0 c-248 0 -279 2 -285 16 -3 9 1 67 10 128 52 362 234 669
526 885 194 143 486 246 710 250 l54 1 -6 -377z m193 362 c364 -55 698 -264
895 -560 130 -196 206 -414 222 -637 l6 -88 -262 0 c-143 0 -261 4 -261 8 0 5
40 103 89 218 l89 209 4 163 5 162 -186 0 c-102 0 -304 3 -448 7 l-263 6 0
-151 0 -152 243 -1 c133 0 263 -4 289 -7 l47 -7 -97 -223 -97 -222 -220 2
-220 3 4 635 c2 349 5 638 8 643 6 10 46 9 153 -8z m-1860 -1295 l107 0 7 -87
c23 -304 122 -583 289 -820 80 -113 248 -281 362 -362 103 -72 314 -179 428
-215 95 -31 254 -62 365 -71 74 -6 82 -9 82 -27 l0 -21 -942 7 c-519 3 -1057
9 -1195 12 l-253 7 0 216 c0 119 3 477 7 795 l6 579 315 -6 c174 -4 363 -7
422 -7z m352 -100 c38 -527 396 -986 898 -1154 110 -37 261 -66 343 -66 57 0
62 -8 52 -85 l-6 -55 -49 0 c-76 0 -266 36 -370 71 -444 147 -798 501 -938
939 -41 129 -62 235 -69 353 l-6 98 69 -3 69 -3 7 -95z m476 93 l112 -6 0
-244 0 -243 -120 0 -120 0 0 -133 0 -134 242 -6 c133 -4 304 -7 380 -7 l138 0
0 135 0 135 -69 0 c-37 0 -89 3 -115 6 l-46 7 0 244 0 243 213 -2 212 -3 0
-142 c0 -79 -1 -369 -3 -644 l-2 -502 -80 7 c-308 25 -594 159 -815 381 -203
202 -327 449 -370 735 -8 52 -15 114 -15 138 l0 42 173 0 c94 0 223 -3 285 -7z
m1233 -13 l58 0 -51 -112 c-143 -318 -285 -648 -280 -653 3 -3 78 -5 167 -5
l163 0 75 178 c41 97 86 206 101 242 14 36 52 128 85 205 l59 140 273 3 272 2
-7 -80 c-19 -228 -111 -479 -237 -646 -74 -98 -221 -245 -310 -309 -191 -137
-421 -219 -678 -239 l-74 -6 7 137 c3 76 7 361 7 633 1 272 4 501 7 509 4 12
32 13 155 7 83 -3 176 -6 208 -6z m1079 -57 c0 -64 -26 -221 -51 -312 -71
-253 -198 -461 -405 -661 -248 -240 -562 -379 -913 -406 l-94 -7 6 39 c4 21 7
51 7 65 0 25 2 25 113 37 529 56 964 402 1131 902 37 110 66 261 66 343 l0 47
70 0 70 0 0 -47z m942 -638 c-1 -374 -5 -731 -9 -793 l-6 -114 -761 7 c-418 3
-880 8 -1026 10 -146 2 -340 5 -432 5 -157 0 -168 1 -168 18 0 17 12 20 113
25 257 15 525 108 762 264 126 84 329 284 404 398 74 114 164 294 199 401 35
106 67 263 77 382 l7 82 422 -2 421 -3 -3 -680z m-4570 -1032 c16 -14 18 -34
18 -168 0 -188 -1 -190 -120 -190 -118 0 -120 2 -120 184 0 191 0 191 117 191
66 0 91 -4 105 -17z m633 -8 c24 -23 25 -29 25 -163 0 -126 -2 -142 -21 -166
-19 -24 -26 -26 -104 -26 -79 0 -85 1 -105 27 -20 26 -22 37 -18 171 3 137 4
145 27 163 18 15 39 19 98 19 65 0 77 -3 98 -25z m644 -11 c19 -24 21 -40 21
-149 0 -187 -12 -205 -134 -205 -49 0 -69 5 -90 21 l-26 20 0 150 c0 188 0
189 124 189 79 0 86 -2 105 -26z m630 2 c20 -18 21 -30 21 -168 0 -187 -1
-188 -123 -188 -120 0 -120 0 -118 187 1 147 2 148 28 172 24 20 34 23 99 19
53 -2 78 -8 93 -22z m636 -11 c24 -23 25 -29 25 -165 0 -136 -1 -142 -25 -165
-21 -22 -33 -25 -100 -25 -68 0 -79 3 -101 25 -25 25 -25 27 -22 171 3 139 4
147 27 165 18 15 39 19 98 19 65 0 77 -3 98 -25z m644 -13 c23 -25 23 -28 16
-166 -8 -179 -10 -181 -127 -178 -117 3 -118 5 -118 184 0 79 5 148 11 159 16
30 47 38 124 32 59 -4 74 -9 94 -31z m625 7 c26 -20 26 -21 26 -167 0 -136 -1
-147 -22 -169 -19 -20 -31 -23 -99 -23 -59 0 -82 4 -97 18 -25 20 -26 27 -24
195 2 161 7 167 116 167 59 0 78 -4 100 -21z m647 -10 c19 -19 20 -30 17 -169
-4 -187 -3 -185 -124 -185 -121 0 -124 4 -124 182 0 129 7 167 34 185 6 4 48
8 94 8 70 0 85 -3 103 -21z"/>
</g>
</svg>
