<?xml version="1.0" standalone="no"?>
<!DOCTYPE svg PUBLIC "-//W3C//DTD SVG 20010904//EN"
 "http://www.w3.org/TR/2001/REC-SVG-20010904/DTD/svg10.dtd">
<svg version="1.0" xmlns="http://www.w3.org/2000/svg"
 width="500.000000pt" height="500.000000pt" viewBox="0 0 500.000000 500.000000"
 preserveAspectRatio="xMidYMid meet">
<metadata>
Created by potrace 1.11, written by Peter Selinger 2001-2013
</metadata>
<g transform="translate(0.000000,500.000000) scale(0.100000,-0.100000)"
fill="#000000" stroke="none">
<path d="M713 4976 c-205 -67 -383 -225 -484 -431 -66 -136 -83 -226 -76 -405
7 -182 32 -265 149 -500 80 -159 93 -192 93 -235 0 -62 -29 -106 -88 -137 -65
-33 -137 -30 -221 10 -37 17 -70 32 -72 32 -2 0 -4 -159 -4 -354 l0 -354 65
-26 c91 -36 233 -59 326 -53 l76 5 6 -432 c6 -486 27 -819 58 -935 32 -116 90
-250 141 -326 88 -132 240 -255 316 -255 45 0 96 25 119 58 20 30 21 78 4 382
-24 409 -35 1186 -23 1560 l11 365 35 80 c65 149 83 372 42 522 -13 47 -12 66
10 215 13 90 40 250 59 356 38 210 42 256 23 299 -9 19 -15 112 -18 288 l-5
259 -55 18 c-43 13 -93 17 -235 17 -161 0 -187 -2 -252 -23z m285 -336 c104
-49 199 -152 231 -251 10 -31 7 -64 -23 -225 -66 -357 -111 -704 -143 -1094
-15 -180 -18 -334 -18 -955 1 -451 5 -830 13 -970 7 -126 15 -282 19 -346 5
-110 5 -117 -16 -138 -51 -51 -140 -13 -254 109 -149 157 -226 371 -247 685
-60 910 -29 1677 101 2525 32 210 67 354 124 520 51 146 67 170 113 170 20 0
65 -13 100 -30z"/>
<path d="M4030 4949 c-235 -18 -441 -97 -626 -240 -116 -89 -260 -262 -324
-389 -12 -25 -24 -47 -26 -49 -4 -4 -420 -40 -471 -41 l-33 0 0 335 0 335
-360 0 -360 0 0 -391 0 -391 -31 -36 c-31 -35 -31 -38 -26 -109 4 -47 14 -92
31 -129 l26 -56 0 -634 0 -634 360 0 360 0 0 519 0 519 28 6 c15 3 92 10 172
16 80 6 156 12 171 15 25 4 25 2 42 -106 47 -295 194 -560 419 -756 61 -52
165 -127 189 -135 9 -3 -7 -72 -49 -225 -34 -122 -62 -225 -62 -228 0 -4 -28
19 -62 50 -180 164 -379 260 -618 300 -151 26 -418 17 -551 -18 -458 -120
-802 -464 -910 -911 -60 -251 -40 -560 51 -792 137 -346 460 -633 815 -723
119 -31 205 -41 352 -41 260 0 481 54 651 161 l63 39 50 -16 c66 -22 135 -7
216 45 67 43 104 84 139 152 33 66 201 680 454 1654 55 215 103 397 105 405 3
10 39 22 107 37 310 67 574 312 645 598 23 95 23 305 0 398 -22 90 -75 204
-140 300 l-52 77 -62 0 -63 0 0 48 c0 50 -23 108 -71 184 l-30 47 -2 372 -2
373 -60 18 c-143 43 -302 59 -455 47z m323 -712 c72 -38 153 -125 200 -215 56
-107 56 -106 -18 -289 -87 -218 -260 -825 -515 -1808 -252 -971 -391 -1473
-425 -1531 -52 -89 -171 -160 -252 -151 -56 6 -86 33 -122 112 -48 101 -64
185 -65 335 l-1 135 218 795 c234 852 397 1426 526 1849 45 146 79 267 76 270
-3 2 -216 -14 -473 -38 -257 -23 -597 -53 -757 -67 -159 -13 -346 -31 -415
-39 -187 -21 -260 3 -374 126 -70 76 -110 149 -124 229 -13 69 -1 96 51 126
41 23 45 24 287 54 510 64 1942 161 2090 142 19 -2 61 -18 93 -35z m-455 -574
c-21 -79 -94 -313 -98 -313 -3 0 -17 20 -33 44 -34 55 -63 138 -72 210 l-7 55
33 5 c36 6 92 12 148 14 27 2 32 -1 29 -15z m-1194 -1902 c119 -42 217 -145
273 -284 14 -37 29 -70 32 -72 3 -2 60 1 125 6 66 5 121 7 123 6 1 -2 -8 -41
-21 -88 l-23 -84 -91 4 c-71 2 -93 0 -96 -10 -2 -8 -10 -51 -19 -97 -41 -216
-170 -356 -365 -398 -180 -38 -352 13 -468 138 -98 106 -138 216 -138 373 1
257 142 457 364 517 86 24 222 19 304 -11z"/>
</g>
</svg>
